<svg xmlns="http://www.w3.org/2000/svg" viewBox="0 0 512 512" fill="#a6e3a1"><!--! Font Awesome Free 5.15.4 - compress-arrows-alt --><path d="M200 288H88c-21.4 0-32.1 25.8-17 41l32.9 31-99.2 99.3c-6.2 6.2-6.2 16.4 0 22.6l25.4 25.4c6.2 6.2 16.4 6.2 22.6 0L152 408l31.1 33c15.1 15.1 40.9 4.4 40.9-17V312c0-13.3-10.7-24-24-24zm112-64h112c21.4 0 32.1-25.9 17-41l-33-31 99.3-99.3c6.2-6.2 6.2-16.4 0-22.6L481.9 4.7c-6.2-6.2-16.4-6.2-22.6 0L360 104l-31.1-33C313.8 55.9 288 66.6 288 88v112c0 13.3 10.7 24 24 24zm96 136l-31.1-33c-15.1-15.1-40.9-4.4-40.9 17v112c0 13.3 10.7 24 24 24h112c21.4 0 32.1-25.9 17-41l-33-31 99.3-99.3c6.2-6.2 6.2-16.4 0-22.6l-25.4-25.4c-6.2-6.2-16.4-6.2-22.6 0L360 408zM152 104L120 71c-15.1-15.1-40.9-4.4-40.9 17v112c0 13.3 10.7 24 24 24h112c21.4 0 32.1-25.9 17-41l-33-31L298.3 52.7c6.2-6.2 6.2-16.4 0-22.6L272.9 4.7c-6.2-6.2-16.4-6.2-22.6 0L152 104z"/></svg>
